<?xml version="1.0" standalone="no"?>
<!DOCTYPE svg PUBLIC "-//W3C//DTD SVG 20010904//EN"
 "http://www.w3.org/TR/2001/REC-SVG-20010904/DTD/svg10.dtd">
<svg version="1.0" xmlns="http://www.w3.org/2000/svg"
 width="512.000000pt" height="512.000000pt" viewBox="0 0 512.000000 512.000000"
 preserveAspectRatio="xMidYMid meet">

<g transform="translate(0.000000,512.000000) scale(0.100000,-0.100000)"
fill="#000000" stroke="none">
<path d="M2405 5114 c-16 -2 -70 -9 -120 -15 -121 -15 -308 -63 -430 -110
-538 -208 -967 -648 -1155 -1184 -103 -295 -138 -637 -90 -875 49 -242 177
-528 388 -865 181 -290 391 -572 902 -1210 339 -424 525 -663 620 -798 18 -26
36 -47 40 -47 4 0 27 28 51 62 87 125 240 321 589 758 196 245 401 504 456
575 485 632 738 1073 841 1465 31 116 42 344 24 497 -85 721 -549 1334 -1216
1606 -124 51 -295 99 -435 122 -91 15 -402 28 -465 19z m350 -1003 c309 -64
569 -269 700 -554 143 -309 114 -678 -76 -958 -55 -83 -168 -200 -245 -255
-86 -62 -234 -129 -340 -156 -127 -32 -341 -32 -468 0 -341 85 -623 358 -715
691 -115 414 48 849 406 1088 214 142 489 196 738 144z"/>
</g>
</svg>
